<?xml version="1.0" encoding="utf-8"?>
<!-- Generator: Adobe Illustrator 26.5.0, SVG Export Plug-In . SVG Version: 6.00 Build 0)  -->
<svg version="1.1" id="Layer_1" xmlns="http://www.w3.org/2000/svg" xmlns:xlink="http://www.w3.org/1999/xlink" x="0px" y="0px"
	 viewBox="0 0 1070.3 112.1" style="enable-background:new 0 0 1070.3 112.1;" xml:space="preserve">
<style type="text/css">
	.st0{fill:#FFFFFF;}
</style>
<image style="overflow:visible;" width="600" height="139" xlink:href="../../../../logo.png"  transform="matrix(1 0 0 1 22.9915 -149.8554)">
</image>
<g>
	<path class="st0" d="M20.1,94.4h43.2v16.6H0V3h20.1V94.4z"/>
	<path class="st0" d="M136.2,110.9h-8.3c-1.7,0-3.1-0.3-4.1-0.8c-1-0.5-1.7-1.6-2.2-3.2l-1.6-5.5c-1.9,1.7-3.8,3.3-5.7,4.6
		c-1.9,1.3-3.8,2.4-5.8,3.3c-2,0.9-4.1,1.6-6.3,2c-2.2,0.4-4.7,0.7-7.5,0.7c-3.2,0-6.2-0.4-9-1.3c-2.7-0.9-5.1-2.2-7.1-3.9
		c-2-1.7-3.5-3.9-4.6-6.5c-1.1-2.6-1.6-5.6-1.6-9.1c0-2.9,0.8-5.8,2.3-8.6c1.5-2.8,4-5.4,7.6-7.6c3.5-2.3,8.2-4.2,14.1-5.7
		c5.9-1.5,13.2-2.2,21.9-2.2v-4.5c0-5.2-1.1-9-3.2-11.5c-2.2-2.5-5.3-3.7-9.4-3.7c-3,0-5.5,0.3-7.5,1c-2,0.7-3.7,1.5-5.2,2.4
		c-1.5,0.9-2.8,1.7-4.1,2.4c-1.2,0.7-2.6,1-4.1,1c-1.2,0-2.3-0.3-3.2-1c-0.9-0.6-1.6-1.4-2.2-2.4L75.9,45
		c8.8-8.1,19.4-12.1,31.9-12.1c4.5,0,8.5,0.7,12,2.2c3.5,1.5,6.5,3.5,8.9,6.1c2.4,2.6,4.3,5.7,5.6,9.4c1.3,3.6,1.9,7.6,1.9,11.9
		V110.9z M100.3,99.4c1.9,0,3.6-0.2,5.2-0.5c1.6-0.3,3.1-0.9,4.5-1.5c1.4-0.7,2.8-1.5,4.1-2.5c1.3-1,2.7-2.2,4-3.6V78.5
		c-5.4,0-9.9,0.3-13.5,1c-3.6,0.7-6.5,1.5-8.7,2.6c-2.2,1.1-3.7,2.3-4.7,3.7c-0.9,1.4-1.4,2.9-1.4,4.6c0,3.3,1,5.6,2.9,7
		C94.8,98.7,97.3,99.4,100.3,99.4z"/>
	<path class="st0" d="M171.2,34.3V83c0,4.7,1.1,8.3,3.2,10.9c2.2,2.6,5.4,3.8,9.7,3.8c3.2,0,6.2-0.7,9-2.1c2.8-1.4,5.4-3.4,7.9-5.9
		V34.3h18.4v76.6h-11.3c-2.4,0-4-1.1-4.7-3.4l-1.3-6.1c-1.6,1.6-3.2,3-4.9,4.4c-1.7,1.3-3.5,2.4-5.4,3.4c-1.9,0.9-4,1.6-6.2,2.2
		c-2.2,0.5-4.6,0.8-7.1,0.8c-4.2,0-7.9-0.7-11.1-2.1c-3.2-1.4-5.9-3.4-8.1-6c-2.2-2.6-3.8-5.7-5-9.2c-1.1-3.6-1.7-7.5-1.7-11.8V34.3
		H171.2z"/>
	<path class="st0" d="M264.4,112.1c-6.6,0-11.7-1.9-15.3-5.6c-3.6-3.8-5.4-8.9-5.4-15.6V48.2h-7.8c-1,0-1.9-0.3-2.6-1
		c-0.7-0.6-1.1-1.6-1.1-2.9V37l12.3-2l3.9-20.9c0.2-1,0.7-1.8,1.4-2.3c0.7-0.5,1.6-0.8,2.7-0.8h9.6V35h20.2v13.1h-20.2v41.5
		c0,2.4,0.6,4.3,1.8,5.6c1.2,1.3,2.8,2,4.8,2c1.1,0,2.1-0.1,2.9-0.4c0.8-0.3,1.4-0.6,2-0.9c0.6-0.3,1.1-0.6,1.5-0.9
		c0.4-0.3,0.9-0.4,1.3-0.4c0.5,0,1,0.1,1.3,0.4c0.3,0.3,0.7,0.7,1.1,1.2l5.5,9c-2.7,2.2-5.8,3.9-9.3,5.1
		C271.7,111.6,268.1,112.1,264.4,112.1z"/>
	<path class="st0" d="M357,110.9h-8.3c-1.7,0-3.1-0.3-4.1-0.8c-1-0.5-1.7-1.6-2.2-3.2l-1.6-5.5c-1.9,1.7-3.8,3.3-5.7,4.6
		c-1.9,1.3-3.8,2.4-5.8,3.3c-2,0.9-4.1,1.6-6.3,2c-2.2,0.4-4.7,0.7-7.5,0.7c-3.2,0-6.2-0.4-9-1.3c-2.7-0.9-5.1-2.2-7.1-3.9
		c-2-1.7-3.5-3.9-4.6-6.5c-1.1-2.6-1.6-5.6-1.6-9.1c0-2.9,0.8-5.8,2.3-8.6c1.5-2.8,4-5.4,7.6-7.6c3.5-2.3,8.2-4.2,14.1-5.7
		c5.9-1.5,13.2-2.2,21.9-2.2v-4.5c0-5.2-1.1-9-3.2-11.5c-2.2-2.5-5.3-3.7-9.4-3.7c-3,0-5.5,0.3-7.5,1c-2,0.7-3.7,1.5-5.2,2.4
		c-1.5,0.9-2.8,1.7-4.1,2.4c-1.2,0.7-2.6,1-4.1,1c-1.2,0-2.3-0.3-3.2-1c-0.9-0.6-1.6-1.4-2.2-2.4l-3.4-5.9
		c8.8-8.1,19.4-12.1,31.9-12.1c4.5,0,8.5,0.7,12,2.2c3.5,1.5,6.5,3.5,8.9,6.1c2.4,2.6,4.3,5.7,5.6,9.4c1.3,3.6,1.9,7.6,1.9,11.9
		V110.9z M321.2,99.4c1.9,0,3.6-0.2,5.2-0.5c1.6-0.3,3.1-0.9,4.5-1.5c1.4-0.7,2.8-1.5,4.1-2.5c1.3-1,2.7-2.2,4-3.6V78.5
		c-5.4,0-9.9,0.3-13.5,1c-3.6,0.7-6.5,1.5-8.7,2.6c-2.2,1.1-3.7,2.3-4.7,3.7c-0.9,1.4-1.4,2.9-1.4,4.6c0,3.3,1,5.6,2.9,7
		C315.6,98.7,318.1,99.4,321.2,99.4z"/>
	<path class="st0" d="M375.2,110.9V34.3H386c1.9,0,3.2,0.3,4,1s1.2,1.9,1.5,3.6l1.1,9.3c2.7-4.7,5.9-8.5,9.6-11.2
		c3.7-2.7,7.8-4.1,12.4-4.1c3.8,0,6.9,0.9,9.4,2.6l-2.4,13.8c-0.1,0.9-0.5,1.5-1,1.9c-0.5,0.4-1.2,0.6-2,0.6c-0.7,0-1.8-0.2-3.1-0.5
		c-1.3-0.3-3-0.5-5.2-0.5c-3.8,0-7.1,1.1-9.9,3.2c-2.7,2.1-5.1,5.2-6.9,9.3v47.7H375.2z"/>
	<path class="st0" d="M468.9,33.1c5.7,0,10.9,0.9,15.6,2.8c4.7,1.8,8.6,4.5,11.9,7.8c3.3,3.4,5.8,7.5,7.6,12.4
		c1.8,4.9,2.7,10.3,2.7,16.4c0,6.1-0.9,11.5-2.7,16.4c-1.8,4.9-4.3,9-7.6,12.5c-3.3,3.4-7.3,6.1-11.9,7.9c-4.7,1.8-9.8,2.8-15.6,2.8
		c-5.7,0-10.9-0.9-15.6-2.8c-4.7-1.8-8.7-4.5-12-7.9c-3.3-3.4-5.9-7.6-7.7-12.5c-1.8-4.9-2.7-10.4-2.7-16.4c0-6,0.9-11.5,2.7-16.4
		c1.8-4.9,4.4-9,7.7-12.4c3.3-3.4,7.3-6,12-7.8C457.9,34.1,463.1,33.1,468.9,33.1z M468.9,97.9c6.4,0,11.1-2.1,14.1-6.4
		c3.1-4.3,4.6-10.6,4.6-18.8c0-8.3-1.5-14.6-4.6-18.9s-7.8-6.5-14.1-6.5c-6.5,0-11.2,2.2-14.3,6.5c-3.1,4.4-4.6,10.6-4.6,18.9
		s1.5,14.5,4.6,18.8C457.6,95.7,462.4,97.9,468.9,97.9z"/>
	<path class="st0" d="M590.2,3v16h-47.9v32h40.4V67h-40.4v44h-20.2V3H590.2z"/>
	<path class="st0" d="M631.8,33.1c4.8,0,9.3,0.8,13.3,2.3c4.1,1.5,7.6,3.8,10.5,6.8c2.9,3,5.2,6.6,6.9,10.9
		c1.6,4.3,2.5,9.2,2.5,14.7c0,1.4-0.1,2.6-0.2,3.5c-0.1,0.9-0.3,1.6-0.7,2.2c-0.3,0.5-0.8,0.9-1.3,1.1c-0.5,0.2-1.2,0.3-2.1,0.3
		h-47.3c0.5,7.9,2.7,13.6,6.3,17.3c3.7,3.7,8.6,5.5,14.6,5.5c3,0,5.6-0.3,7.7-1c2.2-0.7,4.1-1.5,5.7-2.3c1.6-0.8,3-1.6,4.3-2.3
		c1.2-0.7,2.4-1,3.5-1c0.7,0,1.4,0.1,1.9,0.4c0.5,0.3,1,0.7,1.4,1.3l5.4,6.7c-2,2.4-4.3,4.4-6.9,6c-2.5,1.6-5.2,2.9-8,3.9
		c-2.8,1-5.6,1.7-8.4,2.1c-2.9,0.4-5.6,0.6-8.3,0.6c-5.3,0-10.3-0.9-14.9-2.6c-4.6-1.8-8.6-4.4-11.9-7.8c-3.4-3.5-6-7.7-8-12.8
		c-1.9-5.1-2.9-11-2.9-17.7c0-5.2,0.8-10.1,2.5-14.7c1.7-4.6,4.1-8.6,7.3-12c3.2-3.4,7-6.1,11.6-8.1
		C620.9,34.1,626.1,33.1,631.8,33.1z M632.2,46.4c-5.4,0-9.6,1.5-12.6,4.6c-3,3-5,7.3-5.8,12.9h34.6c0-2.4-0.3-4.6-1-6.8
		c-0.6-2.1-1.6-4-3-5.6c-1.3-1.6-3-2.8-5.1-3.8C637.3,46.8,634.9,46.4,632.2,46.4z"/>
	<path class="st0" d="M679.9,110.9V34.3h10.8c1.9,0,3.2,0.3,4,1s1.2,1.9,1.5,3.6l1.1,9.3c2.7-4.7,5.9-8.5,9.6-11.2
		c3.7-2.7,7.8-4.1,12.4-4.1c3.8,0,6.9,0.9,9.4,2.6l-2.4,13.8c-0.1,0.9-0.5,1.5-1,1.9c-0.5,0.4-1.2,0.6-2,0.6c-0.7,0-1.8-0.2-3.1-0.5
		c-1.3-0.3-3-0.5-5.2-0.5c-3.8,0-7.1,1.1-9.9,3.2c-2.7,2.1-5.1,5.2-6.9,9.3v47.7H679.9z"/>
	<path class="st0" d="M740.9,110.9V34.3h10.8c1.9,0,3.2,0.3,4,1c0.7,0.7,1.2,1.9,1.5,3.6l1.1,9.3c2.7-4.7,5.9-8.5,9.6-11.2
		c3.7-2.7,7.8-4.1,12.4-4.1c3.8,0,6.9,0.9,9.4,2.6l-2.4,13.8c-0.1,0.9-0.5,1.5-1,1.9c-0.5,0.4-1.2,0.6-2,0.6c-0.7,0-1.8-0.2-3.1-0.5
		c-1.3-0.3-3-0.5-5.2-0.5c-3.8,0-7.1,1.1-9.9,3.2c-2.7,2.1-5.1,5.2-6.9,9.3v47.7H740.9z"/>
	<path class="st0" d="M859.8,110.9h-8.3c-1.7,0-3.1-0.3-4.1-0.8c-1-0.5-1.7-1.6-2.2-3.2l-1.6-5.5c-1.9,1.7-3.8,3.3-5.7,4.6
		c-1.9,1.3-3.8,2.4-5.8,3.3c-2,0.9-4.1,1.6-6.3,2c-2.2,0.4-4.7,0.7-7.5,0.7c-3.2,0-6.2-0.4-9-1.3c-2.7-0.9-5.1-2.2-7.1-3.9
		c-2-1.7-3.5-3.9-4.6-6.5c-1.1-2.6-1.6-5.6-1.6-9.1c0-2.9,0.8-5.8,2.3-8.6c1.5-2.8,4-5.4,7.6-7.6c3.5-2.3,8.2-4.2,14.1-5.7
		c5.9-1.5,13.2-2.2,21.9-2.2v-4.5c0-5.2-1.1-9-3.2-11.5c-2.2-2.5-5.3-3.7-9.4-3.7c-3,0-5.5,0.3-7.5,1c-2,0.7-3.7,1.5-5.2,2.4
		c-1.5,0.9-2.8,1.7-4.1,2.4c-1.2,0.7-2.6,1-4.1,1c-1.2,0-2.3-0.3-3.2-1c-0.9-0.6-1.6-1.4-2.2-2.4l-3.4-5.9
		c8.8-8.1,19.4-12.1,31.9-12.1c4.5,0,8.5,0.7,12,2.2c3.5,1.5,6.5,3.5,8.9,6.1c2.4,2.6,4.3,5.7,5.6,9.4c1.3,3.6,1.9,7.6,1.9,11.9
		V110.9z M824,99.4c1.9,0,3.6-0.2,5.2-0.5c1.6-0.3,3.1-0.9,4.5-1.5c1.4-0.7,2.8-1.5,4.1-2.5c1.3-1,2.7-2.2,4-3.6V78.5
		c-5.4,0-9.9,0.3-13.5,1c-3.6,0.7-6.5,1.5-8.7,2.6c-2.2,1.1-3.7,2.3-4.7,3.7c-0.9,1.4-1.4,2.9-1.4,4.6c0,3.3,1,5.6,2.9,7
		C818.4,98.7,820.9,99.4,824,99.4z"/>
	<path class="st0" d="M877.9,110.9V34.3h11.3c2.4,0,4,1.1,4.7,3.4l1.3,6c1.5-1.6,3.2-3,4.9-4.3c1.7-1.3,3.5-2.4,5.4-3.4
		c1.9-0.9,4-1.7,6.2-2.2c2.2-0.5,4.6-0.7,7.2-0.7c4.2,0,7.9,0.7,11.1,2.1c3.2,1.4,5.9,3.4,8.1,6c2.2,2.6,3.8,5.6,4.9,9.2
		c1.1,3.6,1.7,7.5,1.7,11.8v48.8h-18.4V62.2c0-4.7-1.1-8.3-3.2-10.9c-2.2-2.6-5.4-3.8-9.7-3.8c-3.2,0-6.2,0.7-9,2.2
		c-2.8,1.4-5.4,3.4-7.9,5.9v55.4H877.9z"/>
	<path class="st0" d="M1016.7,110.9c-2.4,0-4-1.1-4.7-3.4l-1.5-7.4c-1.6,1.8-3.3,3.4-5,4.9c-1.7,1.4-3.6,2.7-5.6,3.7
		s-4.2,1.9-6.5,2.4s-4.8,0.9-7.5,0.9c-4.2,0-8-0.9-11.5-2.6c-3.5-1.7-6.5-4.3-9-7.6c-2.5-3.3-4.5-7.4-5.8-12.3
		c-1.4-4.9-2.1-10.5-2.1-16.7c0-5.7,0.8-11,2.3-15.8c1.5-4.9,3.8-9.1,6.6-12.7c2.9-3.6,6.3-6.4,10.4-8.4c4-2,8.6-3,13.6-3
		c4.3,0,7.9,0.7,11,2.1c3,1.4,5.7,3.2,8.1,5.5V0h18.4v110.9H1016.7z M992.2,97.4c3.8,0,7.1-0.8,9.8-2.4c2.7-1.6,5.2-3.9,7.6-6.8
		V53.9c-2.1-2.5-4.4-4.3-6.8-5.4c-2.5-1-5.1-1.6-8-1.6c-2.8,0-5.3,0.5-7.6,1.6c-2.3,1-4.2,2.6-5.7,4.7c-1.6,2.1-2.8,4.8-3.6,8.1
		c-0.8,3.3-1.3,7.1-1.3,11.5c0,4.5,0.4,8.3,1.1,11.4c0.7,3.1,1.8,5.7,3.1,7.6c1.3,2,3,3.4,4.9,4.3C987.6,97,989.8,97.4,992.2,97.4z"
		/>
	<path class="st0" d="M1070.3,12c0,1.6-0.3,3.1-1,4.5c-0.6,1.4-1.5,2.6-2.6,3.7c-1.1,1-2.3,1.9-3.8,2.5c-1.4,0.6-3,0.9-4.6,0.9
		c-1.6,0-3.1-0.3-4.5-0.9c-1.4-0.6-2.7-1.5-3.7-2.5c-1-1-1.9-2.3-2.5-3.7c-0.6-1.4-0.9-2.9-0.9-4.5c0-1.6,0.3-3.2,0.9-4.6
		c0.6-1.4,1.5-2.7,2.5-3.7c1-1,2.3-1.9,3.7-2.5c1.4-0.6,2.9-0.9,4.5-0.9c1.6,0,3.2,0.3,4.6,0.9c1.4,0.6,2.7,1.5,3.8,2.5
		c1.1,1,1.9,2.3,2.6,3.7C1070,8.8,1070.3,10.4,1070.3,12z M1067.6,34.3v76.6h-18.4V34.3H1067.6z"/>
</g>
</svg>
